# xmcd CD database file
#
# Track frame offsets:
#	150
#	14475
#	30350
#	46892
#	65032
#	83570
#	99382
#	114697
#	131012
#	153655
#
# Disc length: 2375 seconds
#
# Revision: 6
# Processed by: cddbd v1.5.2PL0 Copyright (c) Steve Scherf et al.
# Submitted via: CDex 1.51
#
DISCID=7609440a,7c09450a
DTITLE=Radney Foster - Del Rio, TX 1959
DYEAR=1992
DGENRE=Country
TTITLE0=Just Call Me Lonesome
TTITLE1=Don't Say Goodbye
TTITLE2=Easier Said Than Done
TTITLE3=A Fine Line
TTITLE4=Went For A Ride
TTITLE5=Nobody Wins
TTITLE6=Louisiana Blue
TTITLE7=Closing Time
TTITLE8=Hammer And Nails
TTITLE9=Old Silver
EXTD=YEAR: 1992
EXTT0=
EXTT1=
EXTT2=
EXTT3=
EXTT4=
EXTT5=
EXTT6=
EXTT7=
EXTT8=
EXTT9=
PLAYORDER=
